<?xml version="1.0" encoding="UTF-8"?>
<svg version="1.1" xmlns="http://www.w3.org/2000/svg" width="100" height="100">
<path d="M0 0 C8.73885226 6.53626102 14.76302116 15.91130269 16.38671875 26.78515625 C17.2137756 39.81130171 15.29386316 50.21345989 7.38671875 60.78515625 C1.88160246 66.91268335 -4.67153411 71.40263211 -12.61328125 73.78515625 C-13.60328125 73.45515625 -14.59328125 73.12515625 -15.61328125 72.78515625 C-14.95328125 72.45515625 -14.29328125 72.12515625 -13.61328125 71.78515625 C-13.53162629 69.5774482 -13.47379637 67.368852 -13.42578125 65.16015625 C-13.39097656 63.93039063 -13.35617188 62.700625 -13.3203125 61.43359375 C-13.63570282 57.50593292 -14.81010592 55.2334203 -16.61328125 51.78515625 C-15.61328125 48.78515625 -15.61328125 48.78515625 -13.6875 47.79296875 C-12.89988281 47.50164063 -12.11226562 47.2103125 -11.30078125 46.91015625 C-7.19914633 45.1690807 -4.77971201 43.84721393 -2.61328125 39.78515625 C-1.52794719 36.0578906 -0.8439233 32.52784148 -2.453125 28.8828125 C-2.99646484 27.96822266 -2.99646484 27.96822266 -3.55078125 27.03515625 C-6.72371686 21.67060532 -5.94433205 15.81763756 -5.61328125 9.78515625 C-6.12632813 10.14609375 -6.639375 10.50703125 -7.16796875 10.87890625 C-15.33987187 15.83157481 -24.31495282 16.20458168 -33.61328125 14.78515625 C-37.30701666 13.54822407 -40.4307275 12.02413879 -43.61328125 9.78515625 C-43.566875 10.63078125 -43.52046875 11.47640625 -43.47265625 12.34765625 C-43.26382077 18.911057 -43.42228487 23.24190433 -46.7734375 28.8828125 C-48.3836546 32.53014147 -47.69437324 36.05503092 -46.61328125 39.78515625 C-43.70044962 45.3575298 -38.11824566 47.31632679 -32.61328125 49.78515625 C-32.92265625 50.54828125 -33.23203125 51.31140625 -33.55078125 52.09765625 C-34.29221718 53.97305302 -34.97556342 55.87200277 -35.61328125 57.78515625 C-38.80078125 58.59765625 -38.80078125 58.59765625 -42.61328125 58.78515625 C-45.42578125 56.41015625 -45.42578125 56.41015625 -47.61328125 53.78515625 C-48.27328125 53.45515625 -48.93328125 53.12515625 -49.61328125 52.78515625 C-48.62786742 55.74828874 -47.53780446 58.31004766 -45.61328125 60.78515625 C-42.66086488 62.05555916 -39.8038355 62.51245931 -36.61328125 62.78515625 C-36.56429687 63.41164063 -36.5153125 64.038125 -36.46484375 64.68359375 C-36.39007813 65.50085938 -36.3153125 66.318125 -36.23828125 67.16015625 C-36.16867188 67.97226563 -36.0990625 68.784375 -36.02734375 69.62109375 C-35.78435537 71.98849816 -35.78435537 71.98849816 -33.61328125 73.78515625 C-42.64316399 73.09054989 -50.61666255 67.28781873 -56.61328125 60.78515625 C-64.42037535 50.29326961 -66.68702916 39.72978386 -65.61328125 26.78515625 C-63.82611021 16.24084711 -58.26996712 7.3576441 -50.1171875 0.54296875 C-34.76677024 -10.23345522 -15.62290161 -9.98197952 0 0 Z " fill="#FFFFFF" transform="translate(74.61328125,16.21484375)"/>
</svg>
