<?xml version="1.0" encoding="UTF-8"?>
<svg version="1.1" xmlns="http://www.w3.org/2000/svg" width="24" height="24">
<path d="M0 0 C3.375 -0.125 3.375 -0.125 7 0 C9 2 9 2 9.25 5 C9 8 9 8 7 10 C3.375 10.125 3.375 10.125 0 10 C0 9.34 0 8.68 0 8 C1.98 7.67 3.96 7.34 6 7 C6 5.68 6 4.36 6 3 C3.03 2.505 3.03 2.505 0 2 C0 1.34 0 0.68 0 0 Z " fill="#FFFFFF" transform="translate(14,7)"/>
<path d="M0 0 C1.670625 0.061875 1.670625 0.061875 3.375 0.125 C3.375 0.785 3.375 1.445 3.375 2.125 C1.395 2.455 -0.585 2.785 -2.625 3.125 C-2.625 4.445 -2.625 5.765 -2.625 7.125 C0.345 7.62 0.345 7.62 3.375 8.125 C3.375 8.785 3.375 9.445 3.375 10.125 C-0 10.25 -0 10.25 -3.625 10.125 C-5.625 8.125 -5.625 8.125 -5.875 5.125 C-5.4955869 0.57204274 -4.51633162 0.15573557 0 0 Z " fill="#FFFFFF" transform="translate(6.625,6.875)"/>
<path d="M0 0 C3.3 0 6.6 0 10 0 C10 0.66 10 1.32 10 2 C6.7 2 3.4 2 0 2 C0 1.34 0 0.68 0 0 Z " fill="#FFFFFF" transform="translate(7,11)"/>
</svg>
